<!-- icon666.com - MILLIONS vector ICONS FREE --><svg version="1.1" id="Capa_1" xmlns="http://www.w3.org/2000/svg" xmlns:xlink="http://www.w3.org/1999/xlink" x="0px" y="0px" viewBox="0 0 512 512" style="enable-background:new 0 0 512 512;" xml:space="preserve"><circle style="fill: rgb(253, 126, 20);" cx="256" cy="256" r="256" fill="#FFDD17"></circle><path style="fill: rgb(223, 112, 22);" d="M257.231,511.984c123.156-0.581,225.764-88.114,249.564-204.37L406.257,207.077l-22.224,19.068 L264.865,106.977l-56.215,56.215l92.168,92.168L72.432,327.185L257.231,511.984z" fill="#FFB81A"></path><path style="" d="M142.82,303.457h-32.625c-32.182,0-58.271-26.089-58.271-58.271v-32.625h32.625 c32.182,0,58.271,26.089,58.271,58.271V303.457z" fill="#0AEA4F"></path><path style="" d="M142.82,303.457v-32.625c0-32.182-26.089-58.271-58.271-58.271H51.924v0.411l90.485,90.485H142.82z" fill="#09CC40"></path><path style="" d="M197.258,277.448v-32.625c0-32.182,26.089-58.271,58.271-58.27h32.625v32.625 c0,32.182-26.089,58.27-58.271,58.27H197.258z" fill="#0AEA4F"></path><path style="" d="M197.258,277.448h32.625c32.182,0,58.271-26.089,58.271-58.271v-32.625L197.258,277.448z" fill="#09CC40"></path><path style="" d="M201.6,306.512l-139.245,0.001l71.285-71.285c37.533-37.534,98.387-37.534,135.92-0.001 l71.285,71.284L201.6,306.512z" fill="#FFFFFF"></path><path style="" d="M269.56,235.226c-18.665-18.665-43.097-28.039-67.56-28.14v99.425l138.845-0.001L269.56,235.226z" fill="#F0F0F0"></path><path style="" d="M237.108,163.248l54.027,54.027l27.813-27.813l-54.026-54.027c7.816-7.88,7.8-20.602-0.056-28.458 c-7.876-7.876-20.644-7.876-28.52,0c-6.719,6.719-7.685,16.991-2.939,24.756c-7.765-4.746-18.037-3.78-24.756,2.939 c-7.876,7.876-7.876,20.644,0,28.52C216.506,171.048,229.228,171.064,237.108,163.248z" fill="#FFFFFF"></path><path style="" d="M318.948,189.462l-54.026-54.027c7.816-7.88,7.8-20.602-0.056-28.458 c-7.876-7.876-20.644-7.876-28.52,0c-6.146,6.146-7.462,15.258-4.014,22.712l73.195,73.194L318.948,189.462z" fill="#F0F0F0"></path><path style="fill: rgb(255, 174, 0);" d="M316.072,312.922c-27.207-27.207-61.148-105.258-33.941-132.465s105.258,6.735,132.465,33.941 c27.207,27.207,27.207,71.317,0,98.524C387.389,340.129,343.278,340.129,316.072,312.922z" fill="#FF5B00"></path><path style="fill: rgb(242, 168, 7);" d="M414.595,214.398c-27.044-27.044-104.321-60.733-131.964-34.41l132.437,132.437 C441.788,285.181,441.639,241.442,414.595,214.398z" fill="#E2330A"></path><path style="" d="M392.908,350.128H119.092c-32.542,0-58.922-26.38-58.922-58.922l0,0h391.66l0,0 C451.83,323.747,425.45,350.128,392.908,350.128z" fill="#1E67F7"></path><path style="" d="M255.571,291.206v58.922h137.337c32.542,0,58.922-26.38,58.922-58.922l0,0H255.571z" fill="#0053BF"></path></svg>